<svg width="24" height="25" viewBox="0 0 24 25" fill="none" xmlns="http://www.w3.org/2000/svg">
<g clip-path="url(#clip0_1292_71)">
<path d="M23.4168 11.0857L21.78 9.44915C21.3915 9.06067 21.0732 8.29296 21.0732 7.7424V5.4279C21.0732 4.32691 20.1737 3.42747 19.073 3.42689H16.7576C16.2077 3.42689 15.4391 3.10796 15.0506 2.71976L13.414 1.08321C12.6364 0.305597 11.3632 0.305597 10.5856 1.08321L8.94901 2.72094C8.56017 3.10942 7.7907 3.42747 7.24196 3.42747H4.92746C3.82793 3.42747 2.92733 4.32691 2.92733 5.4279V7.74246C2.92733 8.29085 2.60904 9.06096 2.2205 9.44921L0.583649 11.0858C-0.19455 11.8634 -0.19455 13.1366 0.583649 13.9154L2.2205 15.552C2.60927 15.9405 2.92733 16.7103 2.92733 17.2587V19.5733C2.92733 20.6731 3.82793 21.5737 4.92746 21.5737H7.24202C7.79193 21.5737 8.56052 21.892 8.94907 22.2803L10.5856 23.9174C11.3632 24.6944 12.6364 24.6944 13.4141 23.9174L15.0506 22.2803C15.4394 21.8918 16.2077 21.5737 16.7577 21.5737H19.0731C20.1738 21.5737 21.0732 20.6731 21.0732 19.5733V17.2587C21.0732 16.7079 21.3918 15.9402 21.7801 15.552L23.4169 13.9154C24.1939 13.1366 24.1939 11.8633 23.4168 11.0857ZM10.4122 17.0003L5.9994 12.587L7.41365 11.173L10.4125 14.1719L16.5857 8.00016L17.9996 9.41411L10.4122 17.0003Z" fill="#306100"/>
</g>
<defs>
<clipPath id="clip0_1292_71">
<rect width="24" height="24" fill="white" transform="translate(0 0.5)"/>
</clipPath>
</defs>
</svg>
