<svg width="38" height="38" viewBox="0 0 38 38" fill="none" xmlns="http://www.w3.org/2000/svg">
<g clip-path="url(#clip0_1297_1001)">
<path d="M17.7507 1.29398L17.1397 0.714355L2.45312 10.2473L3.39166 11.1858C3.75472 11.5488 12.3551 20.0707 19.1485 20.0707H19.4729L35.5437 9.35687H32.0052C26.0874 9.35687 17.8334 1.37354 17.7507 1.29398Z" fill="white"/>
<path d="M27.9758 25.5482L20.1216 30.7844H19.1485C14.5994 30.7844 9.61877 27.6805 6.16034 25.001L2.45312 27.3892L3.39166 28.3278C3.75472 28.6908 12.3551 37.2841 19.1485 37.2841H19.4729L35.5437 26.4988H32.0052C30.7352 26.4988 29.3574 26.1214 27.9758 25.5482Z" fill="white"/>
<path d="M27.9758 16.9774L20.1216 22.2136H19.1485C14.5994 22.2136 9.61877 19.1097 6.16034 16.4302L2.45312 18.8184L3.39166 19.757C3.75472 20.12 12.3551 28.6419 19.1485 28.6419H19.4729L35.5437 17.928H32.0052C30.7352 17.928 29.3574 17.5506 27.9758 16.9774Z" fill="white"/>
</g>
<defs>
<clipPath id="clip0_1297_1001">
<rect width="36.57" height="36.57" fill="white" transform="translate(0.714844 0.714355)"/>
</clipPath>
</defs>
</svg>
