<svg width="38" height="38" viewBox="0 0 38 38" fill="none" xmlns="http://www.w3.org/2000/svg">
<path d="M7.9905 28.7097C6.4255 30.1241 6.36635 32.5657 7.8614 34.0608C9.35648 35.5559 11.8034 35.4913 13.2178 33.9209L20.1661 26.209L15.8315 21.6055L7.9905 28.7097ZM11.5722 32.4528C10.9806 33.039 10.018 33.0443 9.4264 32.4582C8.82945 31.8612 8.8348 30.8985 9.4264 30.307C10.018 29.7154 10.9752 29.7154 11.5722 30.3124C12.1584 30.9039 12.1584 31.8612 11.5722 32.4528Z" fill="white"/>
<path d="M26.304 19.3953C26.4814 19.2017 26.7557 19.1264 27.0085 19.1963C33.0173 20.8168 36.5302 15.703 35.4892 11.4435C35.3911 11.0418 34.8789 10.9118 34.5866 11.2042L31.2463 14.5444C30.9774 14.8133 30.5418 14.8133 30.2675 14.5444L27.401 11.6726C27.1322 11.4037 27.1322 10.9681 27.401 10.6938L30.8169 7.27796C31.1036 6.99123 30.9787 6.51306 30.595 6.38177C26.8249 5.09153 20.9675 8.56647 22.6846 14.8725C22.7545 15.1306 22.6846 15.3995 22.4856 15.577C22.4296 15.6279 21.1589 16.7836 21.2379 16.7117L25.2875 20.5247L26.304 19.3953Z" fill="white"/>
<path d="M16.2099 13.4473L12.9024 16.7547C12.8756 16.7816 12.8487 16.8085 12.8164 16.8354L28.4393 33.4102C29.6464 34.6813 31.6398 34.6842 32.8492 33.4747C34.07 32.2486 34.0431 30.2533 32.7793 29.0648L16.2099 13.4473Z" fill="white"/>
<path d="M7.99359 20.1428L9.3597 18.7767C9.6803 18.4561 9.6803 17.9364 9.3597 17.6158L8.98068 17.2368C8.55639 16.8125 8.47509 16.1206 8.855 15.6562C9.29189 15.1221 10.0811 15.0928 10.5566 15.5684L10.9818 15.9936C11.3024 16.3142 11.8222 16.3142 12.1428 15.9936L16.3 11.8365C16.7832 11.3532 16.7836 10.5701 16.3004 10.0869L15.1306 8.91707C14.4876 8.27407 14.4806 7.48905 14.9627 7.00653C16.3702 5.59784 18.1049 4.36982 20.1024 3.28691C20.3053 3.17691 20.2343 2.86935 20.0036 2.86223C17.9405 2.79868 16.0473 3.30959 14.2837 4.25796C12.3334 5.30666 11.2374 6.57657 6.89883 10.4148C6.54462 10.7282 6.52538 11.2776 6.85977 11.612L7.12489 11.8771C7.55479 12.307 7.63718 13.0081 7.25222 13.4787C6.80951 14.0199 6.00978 14.0496 5.52792 13.5677L5.17834 13.2182C4.85775 12.8976 4.33801 12.8976 4.01741 13.2182L2.54314 14.6924C2.25645 14.9791 2.25645 15.4439 2.54314 15.7306L6.95542 20.1428C7.24211 20.4295 7.7069 20.4295 7.99359 20.1428Z" fill="white"/>
</svg>
