<svg width="38" height="38" viewBox="0 0 38 38" fill="none" xmlns="http://www.w3.org/2000/svg">
<g clip-path="url(#clip0_1297_1036)">
<path d="M7.60029 13.26C7.65557 7.47477 15.2118 5.49185 18.1349 10.3782C18.4116 8.88514 19.7231 7.75069 21.295 7.75069H23.5325L23.7572 7.52598C24.1756 7.10757 24.1754 6.42874 23.7572 6.01075L20.5114 2.76488C20.0929 2.34647 19.4147 2.34654 18.9963 2.76481L17.7294 4.03155C17.3714 3.85784 17.0039 3.70535 16.6285 3.57471V1.78428C16.6285 1.19259 16.1488 0.712891 15.5571 0.712891H10.9668C10.3751 0.712891 9.89541 1.19259 9.89541 1.78428V3.57471C9.52 3.70535 9.15251 3.85784 8.79453 4.03155L7.52765 2.76488C7.10931 2.34654 6.43091 2.34661 6.01257 2.76495L2.76669 6.01083C2.34821 6.4291 2.34864 7.108 2.76669 7.52605L4.03357 8.79272C3.85979 9.15092 3.70723 9.5184 3.57673 9.89346H1.78623C1.19454 9.89346 0.714844 10.3732 0.714844 10.9648V15.5552C0.714844 16.1469 1.19454 16.6266 1.78623 16.6266H3.57666C3.70723 17.0016 3.85972 17.3691 4.0335 17.7273L2.76662 18.994C2.34821 19.4124 2.34849 20.0912 2.76662 20.5092L6.01249 23.7551C6.43083 24.1734 7.10924 24.1735 7.52758 23.7551L7.75257 23.5301V21.293C7.75257 19.7211 8.88695 18.4096 10.38 18.133C8.71639 17.147 7.60029 15.3342 7.60029 13.26Z" fill="white"/>
<path d="M36.2125 20.2217H34.4825C34.2741 19.5465 34.0029 18.8932 33.6715 18.2671L34.8958 17.0427C35.3143 16.6244 35.3143 15.946 34.8958 15.5275L31.65 12.2817C31.232 11.8636 30.5533 11.8632 30.1348 12.2817L28.9105 13.5061C28.2846 13.1746 27.6313 12.9035 26.9557 12.6949V10.9649C26.9557 10.3733 26.476 9.89355 25.8843 9.89355H21.294C20.7023 9.89355 20.2226 10.3733 20.2226 10.9649V12.6949C19.5472 12.9035 18.8938 13.1746 18.2678 13.5061L17.0436 12.2817C16.5108 11.749 15.8159 11.9941 15.5285 12.2817L12.2826 15.5275C11.8642 15.9459 11.8642 16.6243 12.2826 17.0427L13.507 18.2671C13.1755 18.8933 12.9043 19.5467 12.6959 20.2217H10.9659C10.3742 20.2217 9.89453 20.7014 9.89453 21.2931V25.8834C9.89453 26.475 10.3742 26.9547 10.9659 26.9547H12.6959C12.9044 27.6299 13.1755 28.2833 13.5069 28.9093L12.2826 30.1337C11.8642 30.552 11.8642 31.2304 12.2826 31.6488L15.5285 34.8947C15.9464 35.3128 16.6253 35.3131 17.0436 34.8947L18.2678 33.6703C18.8938 34.0018 19.5472 34.2729 20.2226 34.4815V36.2115C20.2226 36.8032 20.7023 37.2829 21.294 37.2829H25.8843C26.476 37.2829 26.9557 36.8032 26.9557 36.2115V34.4815C27.6311 34.273 28.2846 34.0018 28.9105 33.6705L30.1347 34.8948C30.5527 35.3128 31.2316 35.3132 31.6499 34.8948L34.8958 31.6489C35.3142 31.2306 35.3142 30.5522 34.8958 30.1338L33.6714 28.9094C34.0029 28.2833 34.274 27.6299 34.4824 26.9548H36.2125C36.8042 26.9548 37.2839 26.4751 37.2839 25.8834V21.2931C37.2839 20.7014 36.8042 20.2217 36.2125 20.2217ZM23.5892 30.3975C19.8346 30.3975 16.78 27.3428 16.78 23.5882C17.154 14.5549 30.0258 14.5575 30.3985 23.5883C30.3984 27.3428 27.3438 30.3975 23.5892 30.3975Z" fill="white"/>
<path d="M23.6857 18.9242C21.0799 18.8623 18.9185 20.9831 18.9219 23.5881C19.178 29.7783 27.9992 29.7775 28.2549 23.5881C28.2549 21.0477 26.2139 18.9763 23.6857 18.9242Z" fill="white"/>
<path d="M9.74236 13.2601C9.74236 13.8478 9.88792 14.4019 10.1438 14.8894C10.2988 14.5682 10.508 14.2719 10.7677 14.0123L14.0135 10.7665C14.2667 10.5132 14.5698 10.3042 14.9004 10.1477C12.6085 8.90388 9.71679 10.6402 9.74236 13.2601Z" fill="white"/>
</g>
<defs>
<clipPath id="clip0_1297_1036">
<rect width="36.57" height="36.57" fill="white" transform="translate(0.714844 0.712891)"/>
</clipPath>
</defs>
</svg>
