<svg width="38" height="38" viewBox="0 0 38 38" fill="none" xmlns="http://www.w3.org/2000/svg">
<g clip-path="url(#clip0_1297_1078)">
<path d="M0.714844 0.712891H37.2848V2.86407H0.714844V0.712891Z" fill="white"/>
<path d="M7.16797 3.93945H10.3947V6.09063H7.16797V3.93945Z" fill="white"/>
<path d="M11.4727 3.93945H26.5309V6.09063H11.4727V3.93945Z" fill="white"/>
<path d="M27.6055 3.93945H30.8322V6.09063H27.6055V3.93945Z" fill="white"/>
<path d="M3.94141 7.1665H34.0579V11.4689H3.94141V7.1665Z" fill="white"/>
<path d="M3.94141 28.6782H34.0579V32.9806H3.94141V28.6782Z" fill="white"/>
<path d="M3.94141 12.5444H34.0579V16.8468H3.94141V12.5444Z" fill="white"/>
<path d="M3.94141 17.9224H34.0579V22.2247H3.94141V17.9224Z" fill="white"/>
<path d="M3.94141 23.3003H34.0579V27.6026H3.94141V23.3003Z" fill="white"/>
<path d="M31.9069 6.09063H34.5959C34.7385 6.09063 34.8753 6.14729 34.9762 6.24815C35.077 6.349 35.1337 6.48579 35.1337 6.62842V33.5181C35.1337 33.6608 35.077 33.7976 34.9762 33.8984C34.8753 33.9993 34.7385 34.0559 34.5959 34.0559H3.40381C3.26118 34.0559 3.12439 33.9993 3.02354 33.8984C2.92268 33.7976 2.86602 33.6608 2.86602 33.5181V6.62842C2.86602 6.48579 2.92268 6.349 3.02354 6.24815C3.12439 6.14729 3.26118 6.09063 3.40381 6.09063H6.09278V3.93945H0.714844V37.2827H37.2848V3.93945H31.9069V6.09063Z" fill="white"/>
</g>
<defs>
<clipPath id="clip0_1297_1078">
<rect width="36.57" height="36.57" fill="white" transform="translate(0.714844 0.712891)"/>
</clipPath>
</defs>
</svg>
