<svg width="38" height="37" viewBox="0 0 38 37" fill="none" xmlns="http://www.w3.org/2000/svg">
<g clip-path="url(#clip0_1346_13)">
<path fill-rule="evenodd" clip-rule="evenodd" d="M25.3468 0.99707L17.1992 4.48001V33.3522H19.6797V27.283L19.1057 27.3376C18.8708 27.3598 18.6625 27.1874 18.6403 26.9526C18.6182 26.7177 18.7905 26.5094 19.0254 26.4871L23.4403 26.0669C23.6752 26.0447 23.8835 26.2172 23.9058 26.452C23.9279 26.6869 23.7556 26.8952 23.5207 26.9173L22.8664 26.9796V33.3521H33.4946V4.48001L25.3468 0.99707ZM20.3954 23.3928L18.8553 23.5402V20.5644L20.3954 20.327V23.3928ZM20.3959 18.559L18.8554 18.8484V15.8656L20.3959 15.4859V18.559ZM20.3959 13.7229L18.8554 14.1543V11.1715L20.3959 10.6497V13.7229ZM20.3959 8.88419L18.8554 9.45545V6.66878L20.3964 6.00823L20.3959 8.88419ZM23.6907 23.0789L21.9553 23.2452V20.083L23.6907 19.815V23.0789ZM23.6907 17.9359L21.9553 18.2625V15.1029L23.6907 14.6746V17.9358V17.9359ZM23.6907 12.7955L21.9553 13.2823V10.1201L23.6907 9.53167V12.7955ZM23.6907 7.65517L21.9553 8.30207L21.9548 5.34054L23.6906 4.59579V7.65517H23.6907ZM27.8124 28.2818C27.8124 28.5185 27.6205 28.7103 27.3838 28.7103C27.1471 28.7103 26.9553 28.5185 26.9553 28.2818V4.74028C26.9553 4.50358 27.1471 4.31173 27.3838 4.31173C27.6205 4.31173 27.8124 4.50358 27.8124 4.74028V28.2819V28.2818ZM29.8493 28.2818C29.8493 28.5185 29.6575 28.7103 29.4208 28.7103C29.1841 28.7103 28.9922 28.5185 28.9922 28.2818V5.61103C28.9922 5.37433 29.1841 5.18248 29.4208 5.18248C29.6574 5.18248 29.8493 5.3744 29.8493 5.61103V28.2819V28.2818ZM31.8862 28.2818C31.8862 28.5185 31.6944 28.7103 31.4577 28.7103C31.221 28.7103 31.0291 28.5185 31.0291 28.2818V6.48178C31.0291 6.24508 31.221 6.05323 31.4577 6.05323C31.6944 6.05323 31.8862 6.24508 31.8862 6.48178V28.2819V28.2818ZM12.9875 9.4086L4.50309 13.0355V33.3522H7.15199V28.6401L6.57794 28.6947C6.34309 28.7168 6.13474 28.5445 6.1126 28.3096C6.09046 28.0748 6.26281 27.8664 6.49765 27.8443L10.9126 27.4241C11.1475 27.402 11.3558 27.5743 11.378 27.8092C11.4002 28.044 11.2278 28.2524 10.993 28.2746L10.3386 28.3369V33.3522H16.3421V10.8426L12.9875 9.4086ZM7.56933 24.2561L6.31588 24.4277V22.015L7.56933 21.7575V24.2561ZM7.56933 20.3233L6.31588 20.6316V18.2188L7.56933 17.8247V20.3233ZM7.56976 16.389L6.31595 16.8324V14.5789L7.57018 14.0506L7.56976 16.389ZM10.295 23.8797L8.85142 24.0787V21.4947L10.295 21.1968V23.8797ZM10.295 19.6503L8.85142 20.0059V17.4204L10.295 16.9642V19.6503ZM10.295 15.4192L8.85099 15.9332V13.5119L10.295 12.9V15.4192ZM1.53906 34.2093H36.4586V35.9957H1.53906V34.2093Z" fill="white"/>
</g>
<defs>
<clipPath id="clip0_1346_13">
<rect width="36.57" height="36.57" fill="white" transform="translate(0.714844 0.211426)"/>
</clipPath>
</defs>
</svg>
